<svg width="215" height="72" viewBox="0 0 215 72" fill="none" xmlns="http://www.w3.org/2000/svg">
<rect width="215" height="72" rx="36" fill="#292424"/>
<path d="M49.6419 33.6521C49.5962 28.5083 53.8491 26.005 54.0427 25.8892C51.634 22.3739 47.8999 21.892 46.588 21.8544C43.4508 21.5233 40.4103 23.7332 38.8135 23.7332C37.2166 23.7332 34.7246 21.8867 32.0712 21.9405C28.6598 21.9943 25.4688 23.97 23.716 27.0413C20.103 33.3022 22.7966 42.5025 26.2592 47.5629C27.9904 50.042 30.0147 52.809 32.6627 52.7121C35.2542 52.6072 36.222 51.0594 39.3485 51.0594C42.475 51.0594 43.354 52.7121 46.0558 52.6502C48.8355 52.6072 50.5882 50.1604 52.2577 47.6598C54.2578 44.82 55.0616 42.0207 55.0938 41.878C55.0293 41.8565 49.6957 39.8162 49.6419 33.6521ZM44.5396 18.5247C45.9321 16.7805 46.8864 14.4064 46.623 12C44.6068 12.0888 42.0852 13.397 40.6308 15.1035C39.3458 16.6082 38.1979 19.0711 38.4936 21.3887C40.7598 21.5583 43.0852 20.2447 44.5396 18.5274V18.5247Z" fill="white"/>
<path d="M86.758 51.59H80.07L78.838 55H76.726L82.27 39.754H84.58L90.102 55H87.99L86.758 51.59ZM86.186 49.962L83.414 42.218L80.642 49.962H86.186ZM94.5202 45.166C94.9162 44.4767 95.5029 43.9047 96.2802 43.45C97.0722 42.9807 97.9889 42.746 99.0302 42.746C100.101 42.746 101.069 43.0027 101.934 43.516C102.814 44.0293 103.504 44.7553 104.002 45.694C104.501 46.618 104.75 47.696 104.75 48.928C104.75 50.1453 104.501 51.2307 104.002 52.184C103.504 53.1373 102.814 53.878 101.934 54.406C101.069 54.934 100.101 55.198 99.0302 55.198C98.0036 55.198 97.0942 54.9707 96.3022 54.516C95.5249 54.0467 94.9309 53.4673 94.5202 52.778V60.72H92.5182V42.944H94.5202V45.166ZM102.704 48.928C102.704 48.0187 102.521 47.2267 102.154 46.552C101.788 45.8773 101.289 45.364 100.658 45.012C100.042 44.66 99.3602 44.484 98.6122 44.484C97.8789 44.484 97.1969 44.6673 96.5662 45.034C95.9502 45.386 95.4516 45.9067 95.0702 46.596C94.7036 47.2707 94.5202 48.0553 94.5202 48.95C94.5202 49.8593 94.7036 50.6587 95.0702 51.348C95.4516 52.0227 95.9502 52.5433 96.5662 52.91C97.1969 53.262 97.8789 53.438 98.6122 53.438C99.3602 53.438 100.042 53.262 100.658 52.91C101.289 52.5433 101.788 52.0227 102.154 51.348C102.521 50.6587 102.704 49.852 102.704 48.928ZM109.387 45.166C109.783 44.4767 110.37 43.9047 111.147 43.45C111.939 42.9807 112.856 42.746 113.897 42.746C114.968 42.746 115.936 43.0027 116.801 43.516C117.681 44.0293 118.371 44.7553 118.869 45.694C119.368 46.618 119.617 47.696 119.617 48.928C119.617 50.1453 119.368 51.2307 118.869 52.184C118.371 53.1373 117.681 53.878 116.801 54.406C115.936 54.934 114.968 55.198 113.897 55.198C112.871 55.198 111.961 54.9707 111.169 54.516C110.392 54.0467 109.798 53.4673 109.387 52.778V60.72H107.385V42.944H109.387V45.166ZM117.571 48.928C117.571 48.0187 117.388 47.2267 117.021 46.552C116.655 45.8773 116.156 45.364 115.525 45.012C114.909 44.66 114.227 44.484 113.479 44.484C112.746 44.484 112.064 44.6673 111.433 45.034C110.817 45.386 110.319 45.9067 109.937 46.596C109.571 47.2707 109.387 48.0553 109.387 48.95C109.387 49.8593 109.571 50.6587 109.937 51.348C110.319 52.0227 110.817 52.5433 111.433 52.91C112.064 53.262 112.746 53.438 113.479 53.438C114.227 53.438 114.909 53.262 115.525 52.91C116.156 52.5433 116.655 52.0227 117.021 51.348C117.388 50.6587 117.571 49.852 117.571 48.928ZM132.98 55.154C131.968 55.154 131.058 54.978 130.252 54.626C129.46 54.2593 128.836 53.7607 128.382 53.13C127.927 52.4847 127.692 51.744 127.678 50.908H129.812C129.885 51.6267 130.178 52.2353 130.692 52.734C131.22 53.218 131.982 53.46 132.98 53.46C133.933 53.46 134.681 53.2253 135.224 52.756C135.781 52.272 136.06 51.656 136.06 50.908C136.06 50.3213 135.898 49.8447 135.576 49.478C135.253 49.1113 134.85 48.8327 134.366 48.642C133.882 48.4513 133.229 48.246 132.408 48.026C131.396 47.762 130.582 47.498 129.966 47.234C129.364 46.97 128.844 46.5593 128.404 46.002C127.978 45.43 127.766 44.6673 127.766 43.714C127.766 42.878 127.978 42.1373 128.404 41.492C128.829 40.8467 129.423 40.348 130.186 39.996C130.963 39.644 131.85 39.468 132.848 39.468C134.285 39.468 135.458 39.8273 136.368 40.546C137.292 41.2647 137.812 42.218 137.93 43.406H135.73C135.656 42.8193 135.348 42.306 134.806 41.866C134.263 41.4113 133.544 41.184 132.65 41.184C131.814 41.184 131.132 41.404 130.604 41.844C130.076 42.2693 129.812 42.8707 129.812 43.648C129.812 44.2053 129.966 44.66 130.274 45.012C130.596 45.364 130.985 45.6353 131.44 45.826C131.909 46.002 132.562 46.2073 133.398 46.442C134.41 46.7207 135.224 46.9993 135.84 47.278C136.456 47.542 136.984 47.96 137.424 48.532C137.864 49.0893 138.084 49.852 138.084 50.82C138.084 51.568 137.886 52.272 137.49 52.932C137.094 53.592 136.507 54.1273 135.73 54.538C134.952 54.9487 134.036 55.154 132.98 55.154ZM143.472 44.594V51.7C143.472 52.2867 143.597 52.7047 143.846 52.954C144.095 53.1887 144.528 53.306 145.144 53.306H146.618V55H144.814C143.699 55 142.863 54.7433 142.306 54.23C141.749 53.7167 141.47 52.8733 141.47 51.7V44.594H139.908V42.944H141.47V39.908H143.472V42.944H146.618V44.594H143.472ZM154.302 55.198C153.172 55.198 152.146 54.9413 151.222 54.428C150.312 53.9147 149.594 53.1887 149.066 52.25C148.552 51.2967 148.296 50.1967 148.296 48.95C148.296 47.718 148.56 46.6327 149.088 45.694C149.63 44.7407 150.364 44.0147 151.288 43.516C152.212 43.0027 153.246 42.746 154.39 42.746C155.534 42.746 156.568 43.0027 157.492 43.516C158.416 44.0147 159.142 44.7333 159.67 45.672C160.212 46.6107 160.484 47.7033 160.484 48.95C160.484 50.1967 160.205 51.2967 159.648 52.25C159.105 53.1887 158.364 53.9147 157.426 54.428C156.487 54.9413 155.446 55.198 154.302 55.198ZM154.302 53.438C155.02 53.438 155.695 53.2693 156.326 52.932C156.956 52.5947 157.462 52.0887 157.844 51.414C158.24 50.7393 158.438 49.918 158.438 48.95C158.438 47.982 158.247 47.1607 157.866 46.486C157.484 45.8113 156.986 45.3127 156.37 44.99C155.754 44.6527 155.086 44.484 154.368 44.484C153.634 44.484 152.96 44.6527 152.344 44.99C151.742 45.3127 151.258 45.8113 150.892 46.486C150.525 47.1607 150.342 47.982 150.342 48.95C150.342 49.9327 150.518 50.7613 150.87 51.436C151.236 52.1107 151.72 52.6167 152.322 52.954C152.923 53.2767 153.583 53.438 154.302 53.438ZM165.118 44.902C165.47 44.2127 165.969 43.6773 166.614 43.296C167.274 42.9147 168.073 42.724 169.012 42.724V44.792H168.484C166.24 44.792 165.118 46.0093 165.118 48.444V55H163.116V42.944H165.118V44.902ZM182.323 48.51C182.323 48.8913 182.301 49.2947 182.257 49.72H172.621C172.694 50.908 173.098 51.8393 173.831 52.514C174.579 53.174 175.481 53.504 176.537 53.504C177.402 53.504 178.121 53.306 178.693 52.91C179.28 52.4993 179.69 51.9567 179.925 51.282H182.081C181.758 52.4407 181.113 53.3867 180.145 54.12C179.177 54.8387 177.974 55.198 176.537 55.198C175.393 55.198 174.366 54.9413 173.457 54.428C172.562 53.9147 171.858 53.1887 171.345 52.25C170.832 51.2967 170.575 50.1967 170.575 48.95C170.575 47.7033 170.824 46.6107 171.323 45.672C171.822 44.7333 172.518 44.0147 173.413 43.516C174.322 43.0027 175.364 42.746 176.537 42.746C177.681 42.746 178.693 42.9953 179.573 43.494C180.453 43.9927 181.128 44.682 181.597 45.562C182.081 46.4273 182.323 47.41 182.323 48.51ZM180.255 48.092C180.255 47.3293 180.086 46.6767 179.749 46.134C179.412 45.5767 178.95 45.1587 178.363 44.88C177.791 44.5867 177.153 44.44 176.449 44.44C175.437 44.44 174.572 44.7627 173.853 45.408C173.149 46.0533 172.746 46.948 172.643 48.092H180.255Z" fill="#FFFBFB"/>
<path d="M85.448 22.32C85.2453 21.9467 84.952 21.664 84.568 21.472C84.1947 21.2693 83.752 21.168 83.24 21.168C82.3547 21.168 81.6453 21.4613 81.112 22.048C80.5787 22.624 80.312 23.3973 80.312 24.368C80.312 25.4027 80.5893 26.2133 81.144 26.8C81.7093 27.376 82.4827 27.664 83.464 27.664C84.136 27.664 84.7013 27.4933 85.16 27.152C85.6293 26.8107 85.9707 26.32 86.184 25.68H82.712V23.664H88.664V26.208C88.4613 26.8907 88.1147 27.5253 87.624 28.112C87.144 28.6987 86.5307 29.1733 85.784 29.536C85.0373 29.8987 84.1947 30.08 83.256 30.08C82.1467 30.08 81.1547 29.84 80.28 29.36C79.416 28.8693 78.7387 28.192 78.248 27.328C77.768 26.464 77.528 25.4773 77.528 24.368C77.528 23.2587 77.768 22.272 78.248 21.408C78.7387 20.5333 79.416 19.856 80.28 19.376C81.144 18.8853 82.1307 18.64 83.24 18.64C84.584 18.64 85.7147 18.9653 86.632 19.616C87.56 20.2667 88.1733 21.168 88.472 22.32H85.448ZM92.9155 20.96V23.232H96.5795V25.344H92.9155V27.808H97.0595V30H90.1795V18.768H97.0595V20.96H92.9155ZM106.916 18.768V20.96H103.94V30H101.204V20.96H98.2278V18.768H106.916ZM114.416 18.768V30H111.68V18.768H114.416ZM124.478 18.768V20.96H121.502V30H118.766V20.96H115.79V18.768H124.478ZM134.554 30.112C133.498 30.112 132.527 29.8667 131.642 29.376C130.767 28.8853 130.069 28.2027 129.546 27.328C129.034 26.4427 128.778 25.4507 128.778 24.352C128.778 23.2533 129.034 22.2667 129.546 21.392C130.069 20.5173 130.767 19.8347 131.642 19.344C132.527 18.8533 133.498 18.608 134.554 18.608C135.61 18.608 136.575 18.8533 137.45 19.344C138.335 19.8347 139.029 20.5173 139.53 21.392C140.042 22.2667 140.298 23.2533 140.298 24.352C140.298 25.4507 140.042 26.4427 139.53 27.328C139.018 28.2027 138.325 28.8853 137.45 29.376C136.575 29.8667 135.61 30.112 134.554 30.112ZM134.554 27.616C135.45 27.616 136.165 27.3173 136.698 26.72C137.242 26.1227 137.514 25.3333 137.514 24.352C137.514 23.36 137.242 22.5707 136.698 21.984C136.165 21.3867 135.45 21.088 134.554 21.088C133.647 21.088 132.922 21.3813 132.378 21.968C131.845 22.5547 131.578 23.3493 131.578 24.352C131.578 25.344 131.845 26.1387 132.378 26.736C132.922 27.3227 133.647 27.616 134.554 27.616ZM151.868 30H149.132L144.556 23.072V30H141.82V18.768H144.556L149.132 25.728V18.768H151.868V30Z" fill="#FFFBFB"/>
</svg>
