<svg width="215" height="72" viewBox="0 0 215 72" fill="none" xmlns="http://www.w3.org/2000/svg">
<rect width="215" height="72" rx="36" fill="#292424"/>
<path d="M25.6371 16.563C25.1586 17.0421 25 17.8389 25 18.7971V54.0478C25 55.006 25.3199 55.8028 25.7957 56.2819L25.9543 56.4407L45.7079 36.662V36.3417L25.6371 16.563Z" fill="url(#paint0_linear_917_9497)"/>
<path d="M52.0814 43.3616L45.5488 36.8208V36.3416L52.0814 29.8008L52.24 29.9596L60.0468 34.4251C62.2781 35.701 62.2781 37.7736 60.0468 39.0522L52.0814 43.3589V43.3616Z" fill="url(#paint1_linear_917_9497)"/>
<path d="M52.2401 43.2028L45.5489 36.5032L25.6367 56.4407C26.4325 57.2374 27.5481 57.2374 28.981 56.5995L52.2401 43.2002" fill="url(#paint2_linear_917_9497)"/>
<path d="M52.2401 29.8034L28.981 16.5629C27.5481 15.7661 26.4325 15.9249 25.6367 16.7217L45.5489 36.5004L52.2401 29.8007V29.8034Z" fill="url(#paint3_linear_917_9497)"/>
<path opacity="0.2" d="M52.0815 43.0413L28.981 56.1203C27.7067 56.917 26.5911 56.7582 25.7953 56.1203L25.6367 56.2791L25.7953 56.4379C26.5911 57.0759 27.7067 57.2347 28.981 56.4379L52.0815 43.0386V43.0413Z" fill="#010101"/>
<path opacity="0.12" d="M25.6371 56.1231C25.1586 55.6439 25 54.8472 25 53.8889V54.0478C25 55.006 25.3199 55.8028 25.7957 56.2819V56.1231H25.6371ZM60.0473 38.5758L52.0819 43.0413L52.2405 43.2002L60.0473 38.7346C61.163 38.0967 61.6415 37.2999 61.6415 36.5005C61.6415 37.2972 61.0043 37.9352 60.0473 38.5731V38.5758Z" fill="#010101"/>
<path opacity="0.25" d="M28.9814 16.7244L60.0473 34.4305C61.0043 35.0684 61.6415 35.7063 61.6415 36.5031C61.6415 35.7063 61.163 34.9069 60.0473 34.269L28.9814 16.5629C26.7501 15.287 25 16.2426 25 18.797V18.9558C25 16.5629 26.7528 15.4458 28.9814 16.7217V16.7244Z" fill="white"/>
<path d="M80.52 42.12C80.056 41.144 79.384 40.392 78.504 39.864C77.624 39.32 76.6 39.048 75.432 39.048C74.264 39.048 73.208 39.32 72.264 39.864C71.336 40.392 70.6 41.16 70.056 42.168C69.528 43.16 69.264 44.312 69.264 45.624C69.264 46.936 69.528 48.088 70.056 49.08C70.6 50.072 71.336 50.84 72.264 51.384C73.208 51.912 74.264 52.176 75.432 52.176C77.064 52.176 78.408 51.688 79.464 50.712C80.52 49.736 81.136 48.416 81.312 46.752H74.64V44.976H83.64V46.656C83.512 48.032 83.08 49.296 82.344 50.448C81.608 51.584 80.64 52.488 79.44 53.16C78.24 53.816 76.904 54.144 75.432 54.144C73.88 54.144 72.464 53.784 71.184 53.064C69.904 52.328 68.888 51.312 68.136 50.016C67.4 48.72 67.032 47.256 67.032 45.624C67.032 43.992 67.4 42.528 68.136 41.232C68.888 39.92 69.904 38.904 71.184 38.184C72.464 37.448 73.88 37.08 75.432 37.08C77.208 37.08 78.776 37.52 80.136 38.4C81.512 39.28 82.512 40.52 83.136 42.12H80.52ZM91.6317 54.198C90.5024 54.198 89.4757 53.9413 88.5517 53.428C87.6424 52.9147 86.9237 52.1887 86.3957 51.25C85.8824 50.2967 85.6257 49.1967 85.6257 47.95C85.6257 46.718 85.8897 45.6327 86.4177 44.694C86.9604 43.7407 87.6937 43.0147 88.6177 42.516C89.5417 42.0027 90.5757 41.746 91.7197 41.746C92.8637 41.746 93.8977 42.0027 94.8217 42.516C95.7457 43.0147 96.4717 43.7333 96.9997 44.672C97.5424 45.6107 97.8137 46.7033 97.8137 47.95C97.8137 49.1967 97.535 50.2967 96.9777 51.25C96.435 52.1887 95.6944 52.9147 94.7557 53.428C93.817 53.9413 92.7757 54.198 91.6317 54.198ZM91.6317 52.438C92.3504 52.438 93.025 52.2693 93.6557 51.932C94.2864 51.5947 94.7924 51.0887 95.1737 50.414C95.5697 49.7393 95.7677 48.918 95.7677 47.95C95.7677 46.982 95.577 46.1607 95.1957 45.486C94.8144 44.8113 94.3157 44.3127 93.6997 43.99C93.0837 43.6527 92.4164 43.484 91.6977 43.484C90.9644 43.484 90.2897 43.6527 89.6737 43.99C89.0724 44.3127 88.5884 44.8113 88.2217 45.486C87.855 46.1607 87.6717 46.982 87.6717 47.95C87.6717 48.9327 87.8477 49.7613 88.1997 50.436C88.5664 51.1107 89.0504 51.6167 89.6517 51.954C90.253 52.2767 90.913 52.438 91.6317 52.438ZM105.704 54.198C104.575 54.198 103.548 53.9413 102.624 53.428C101.715 52.9147 100.996 52.1887 100.468 51.25C99.9546 50.2967 99.698 49.1967 99.698 47.95C99.698 46.718 99.962 45.6327 100.49 44.694C101.033 43.7407 101.766 43.0147 102.69 42.516C103.614 42.0027 104.648 41.746 105.792 41.746C106.936 41.746 107.97 42.0027 108.894 42.516C109.818 43.0147 110.544 43.7333 111.072 44.672C111.615 45.6107 111.886 46.7033 111.886 47.95C111.886 49.1967 111.607 50.2967 111.05 51.25C110.507 52.1887 109.767 52.9147 108.828 53.428C107.889 53.9413 106.848 54.198 105.704 54.198ZM105.704 52.438C106.423 52.438 107.097 52.2693 107.728 51.932C108.359 51.5947 108.865 51.0887 109.246 50.414C109.642 49.7393 109.84 48.918 109.84 47.95C109.84 46.982 109.649 46.1607 109.268 45.486C108.887 44.8113 108.388 44.3127 107.772 43.99C107.156 43.6527 106.489 43.484 105.77 43.484C105.037 43.484 104.362 43.6527 103.746 43.99C103.145 44.3127 102.661 44.8113 102.294 45.486C101.927 46.1607 101.744 46.982 101.744 47.95C101.744 48.9327 101.92 49.7613 102.272 50.436C102.639 51.1107 103.123 51.6167 103.724 51.954C104.325 52.2767 104.985 52.438 105.704 52.438ZM119.49 41.746C120.532 41.746 121.441 41.9733 122.218 42.428C123.01 42.8827 123.597 43.4547 123.978 44.144V41.944H126.002V54.264C126.002 55.364 125.768 56.3393 125.298 57.19C124.829 58.0553 124.154 58.73 123.274 59.214C122.409 59.698 121.397 59.94 120.238 59.94C118.654 59.94 117.334 59.566 116.278 58.818C115.222 58.07 114.599 57.0507 114.408 55.76H116.388C116.608 56.4933 117.063 57.08 117.752 57.52C118.442 57.9747 119.27 58.202 120.238 58.202C121.338 58.202 122.233 57.8573 122.922 57.168C123.626 56.4787 123.978 55.5107 123.978 54.264V51.734C123.582 52.438 122.996 53.0247 122.218 53.494C121.441 53.9633 120.532 54.198 119.49 54.198C118.42 54.198 117.444 53.934 116.564 53.406C115.699 52.878 115.017 52.1373 114.518 51.184C114.02 50.2307 113.77 49.1453 113.77 47.928C113.77 46.696 114.02 45.618 114.518 44.694C115.017 43.7553 115.699 43.0293 116.564 42.516C117.444 42.0027 118.42 41.746 119.49 41.746ZM123.978 47.95C123.978 47.0407 123.795 46.2487 123.428 45.574C123.062 44.8993 122.563 44.386 121.932 44.034C121.316 43.6673 120.634 43.484 119.886 43.484C119.138 43.484 118.456 43.66 117.84 44.012C117.224 44.364 116.733 44.8773 116.366 45.552C116 46.2267 115.816 47.0187 115.816 47.928C115.816 48.852 116 49.6587 116.366 50.348C116.733 51.0227 117.224 51.5433 117.84 51.91C118.456 52.262 119.138 52.438 119.886 52.438C120.634 52.438 121.316 52.262 121.932 51.91C122.563 51.5433 123.062 51.0227 123.428 50.348C123.795 49.6587 123.978 48.8593 123.978 47.95ZM131.387 37.72V54H129.385V37.72H131.387ZM145.799 47.51C145.799 47.8913 145.777 48.2947 145.733 48.72H136.097C136.171 49.908 136.574 50.8393 137.307 51.514C138.055 52.174 138.957 52.504 140.013 52.504C140.879 52.504 141.597 52.306 142.169 51.91C142.756 51.4993 143.167 50.9567 143.401 50.282H145.557C145.235 51.4407 144.589 52.3867 143.621 53.12C142.653 53.8387 141.451 54.198 140.013 54.198C138.869 54.198 137.843 53.9413 136.933 53.428C136.039 52.9147 135.335 52.1887 134.821 51.25C134.308 50.2967 134.051 49.1967 134.051 47.95C134.051 46.7033 134.301 45.6107 134.799 44.672C135.298 43.7333 135.995 43.0147 136.889 42.516C137.799 42.0027 138.84 41.746 140.013 41.746C141.157 41.746 142.169 41.9953 143.049 42.494C143.929 42.9927 144.604 43.682 145.073 44.562C145.557 45.4273 145.799 46.41 145.799 47.51ZM143.731 47.092C143.731 46.3293 143.563 45.6767 143.225 45.134C142.888 44.5767 142.426 44.1587 141.839 43.88C141.267 43.5867 140.629 43.44 139.925 43.44C138.913 43.44 138.048 43.7627 137.329 44.408C136.625 45.0533 136.222 45.948 136.119 47.092H143.731ZM164.559 43.154C164.559 44.43 164.119 45.4933 163.239 46.344C162.374 47.18 161.047 47.598 159.257 47.598H156.309V54H154.307V38.666H159.257C160.988 38.666 162.301 39.084 163.195 39.92C164.105 40.756 164.559 41.834 164.559 43.154ZM159.257 45.948C160.372 45.948 161.193 45.706 161.721 45.222C162.249 44.738 162.513 44.0487 162.513 43.154C162.513 41.262 161.428 40.316 159.257 40.316H156.309V45.948H159.257ZM169.05 37.72V54H167.048V37.72H169.05ZM171.714 47.928C171.714 46.696 171.963 45.618 172.462 44.694C172.96 43.7553 173.642 43.0293 174.508 42.516C175.388 42.0027 176.363 41.746 177.434 41.746C178.49 41.746 179.406 41.9733 180.184 42.428C180.961 42.8827 181.54 43.4547 181.922 44.144V41.944H183.946V54H181.922V51.756C181.526 52.46 180.932 53.0467 180.14 53.516C179.362 53.9707 178.453 54.198 177.412 54.198C176.341 54.198 175.373 53.934 174.508 53.406C173.642 52.878 172.96 52.1373 172.462 51.184C171.963 50.2307 171.714 49.1453 171.714 47.928ZM181.922 47.95C181.922 47.0407 181.738 46.2487 181.372 45.574C181.005 44.8993 180.506 44.386 179.876 44.034C179.26 43.6673 178.578 43.484 177.83 43.484C177.082 43.484 176.4 43.66 175.784 44.012C175.168 44.364 174.676 44.8773 174.31 45.552C173.943 46.2267 173.76 47.0187 173.76 47.928C173.76 48.852 173.943 49.6587 174.31 50.348C174.676 51.0227 175.168 51.5433 175.784 51.91C176.4 52.262 177.082 52.438 177.83 52.438C178.578 52.438 179.26 52.262 179.876 51.91C180.506 51.5433 181.005 51.0227 181.372 50.348C181.738 49.6587 181.922 48.8593 181.922 47.95ZM197.713 41.944L190.453 59.676H188.385L190.761 53.868L185.899 41.944H188.121L191.905 51.712L195.645 41.944H197.713Z" fill="#FFFBFB"/>
<path d="M75.448 19.32C75.2453 18.9467 74.952 18.664 74.568 18.472C74.1947 18.2693 73.752 18.168 73.24 18.168C72.3547 18.168 71.6453 18.4613 71.112 19.048C70.5787 19.624 70.312 20.3973 70.312 21.368C70.312 22.4027 70.5893 23.2133 71.144 23.8C71.7093 24.376 72.4827 24.664 73.464 24.664C74.136 24.664 74.7013 24.4933 75.16 24.152C75.6293 23.8107 75.9707 23.32 76.184 22.68H72.712V20.664H78.664V23.208C78.4613 23.8907 78.1147 24.5253 77.624 25.112C77.144 25.6987 76.5307 26.1733 75.784 26.536C75.0373 26.8987 74.1947 27.08 73.256 27.08C72.1467 27.08 71.1547 26.84 70.28 26.36C69.416 25.8693 68.7387 25.192 68.248 24.328C67.768 23.464 67.528 22.4773 67.528 21.368C67.528 20.2587 67.768 19.272 68.248 18.408C68.7387 17.5333 69.416 16.856 70.28 16.376C71.144 15.8853 72.1307 15.64 73.24 15.64C74.584 15.64 75.7147 15.9653 76.632 16.616C77.56 17.2667 78.1733 18.168 78.472 19.32H75.448ZM82.9155 17.96V20.232H86.5795V22.344H82.9155V24.808H87.0595V27H80.1795V15.768H87.0595V17.96H82.9155ZM96.9158 15.768V17.96H93.9398V27H91.2038V17.96H88.2278V15.768H96.9158ZM104.416 15.768V27H101.68V15.768H104.416ZM114.478 15.768V17.96H111.502V27H108.766V17.96H105.79V15.768H114.478ZM124.554 27.112C123.498 27.112 122.527 26.8667 121.642 26.376C120.767 25.8853 120.069 25.2027 119.546 24.328C119.034 23.4427 118.778 22.4507 118.778 21.352C118.778 20.2533 119.034 19.2667 119.546 18.392C120.069 17.5173 120.767 16.8347 121.642 16.344C122.527 15.8533 123.498 15.608 124.554 15.608C125.61 15.608 126.575 15.8533 127.45 16.344C128.335 16.8347 129.029 17.5173 129.53 18.392C130.042 19.2667 130.298 20.2533 130.298 21.352C130.298 22.4507 130.042 23.4427 129.53 24.328C129.018 25.2027 128.325 25.8853 127.45 26.376C126.575 26.8667 125.61 27.112 124.554 27.112ZM124.554 24.616C125.45 24.616 126.165 24.3173 126.698 23.72C127.242 23.1227 127.514 22.3333 127.514 21.352C127.514 20.36 127.242 19.5707 126.698 18.984C126.165 18.3867 125.45 18.088 124.554 18.088C123.647 18.088 122.922 18.3813 122.378 18.968C121.845 19.5547 121.578 20.3493 121.578 21.352C121.578 22.344 121.845 23.1387 122.378 23.736C122.922 24.3227 123.647 24.616 124.554 24.616ZM141.868 27H139.132L134.556 20.072V27H131.82V15.768H134.556L139.132 22.728V15.768H141.868V27Z" fill="#FFFBFB"/>
<defs>
<linearGradient id="paint0_linear_917_9497" x1="43.2774" y1="20.1336" x2="16.4935" y2="46.8836" gradientUnits="userSpaceOnUse">
<stop stop-color="#4A99D3"/>
<stop offset="0.26" stop-color="#42BAEB"/>
<stop offset="0.51" stop-color="#41C7F2"/>
<stop offset="0.76" stop-color="#56C9E9"/>
<stop offset="1" stop-color="#5BCAE8"/>
</linearGradient>
<linearGradient id="paint1_linear_917_9497" x1="62.4706" y1="38.2343" x2="23.8919" y2="38.2343" gradientUnits="userSpaceOnUse">
<stop stop-color="#FEE000"/>
<stop offset="0.41" stop-color="#FEBD11"/>
<stop offset="0.78" stop-color="#FAA51A"/>
<stop offset="1" stop-color="#F99C1C"/>
</linearGradient>
<linearGradient id="paint2_linear_917_9497" x1="48.0914" y1="41.8098" x2="11.7623" y2="78.0769" gradientUnits="userSpaceOnUse">
<stop stop-color="#EF4049"/>
<stop offset="1" stop-color="#C31E63"/>
</linearGradient>
<linearGradient id="paint3_linear_917_9497" x1="20.1139" y1="6.56593" x2="36.3311" y2="22.7785" gradientUnits="userSpaceOnUse">
<stop stop-color="#32A072"/>
<stop offset="0.07" stop-color="#2DA771"/>
<stop offset="0.48" stop-color="#4BBA71"/>
<stop offset="0.8" stop-color="#5EBD6B"/>
<stop offset="1" stop-color="#66BE69"/>
</linearGradient>
</defs>
</svg>
